<?xml version="1.0" standalone="no"?>
<!DOCTYPE svg PUBLIC "-//W3C//DTD SVG 20010904//EN"
 "http://www.w3.org/TR/2001/REC-SVG-20010904/DTD/svg10.dtd">
<svg version="1.0" xmlns="http://www.w3.org/2000/svg"
 width="2719.000000pt" height="2719.000000pt" viewBox="0 0 2719.000000 2719.000000"
 preserveAspectRatio="xMidYMid meet">
<metadata>
Created by potrace 1.11, written by Peter Selinger 2001-2013
</metadata>
<g transform="translate(0.000000,2719.000000) scale(0.100000,-0.100000)"
fill="#000000" stroke="none">
<path d="M12812 27180 c-5 -3 -8 -121 -8 -263 1 -143 -1 -263 -4 -267 -3 -5
-80 -10 -172 -13 l-167 -4 -64 61 c-35 34 -131 124 -212 201 -81 77 -175 166
-208 198 l-61 59 -111 -6 c-60 -4 -137 -9 -170 -12 -33 -3 -87 -7 -120 -9
-177 -12 -251 -17 -265 -20 -8 -2 -69 -6 -135 -10 -65 -4 -126 -8 -135 -10 -8
-2 -51 -6 -95 -9 -44 -4 -102 -9 -130 -12 -82 -8 -136 -13 -210 -20 -38 -3
-79 -8 -90 -10 -11 -2 -41 -5 -67 -5 l-48 -2 -1 -76 c0 -42 0 -158 0 -258 -1
-101 -2 -183 -3 -183 -1 0 -22 10 -47 22 -24 12 -46 23 -49 23 -13 4 -202 87
-313 139 -43 20 -80 36 -82 36 -2 0 -41 18 -87 39 -46 22 -135 62 -198 89
l-115 51 -85 -14 c-47 -8 -101 -17 -120 -20 -20 -3 -45 -7 -57 -9 -11 -3 -38
-7 -59 -10 -33 -6 -104 -18 -349 -61 -16 -3 -43 -7 -60 -10 -16 -3 -41 -7 -55
-10 -14 -3 -41 -8 -60 -11 -19 -3 -42 -7 -50 -9 -8 -2 -35 -7 -60 -10 -25 -4
-75 -13 -112 -21 -37 -7 -82 -16 -100 -19 -18 -3 -67 -12 -108 -20 -41 -9 -86
-17 -100 -20 -14 -3 -47 -9 -75 -15 -27 -5 -62 -12 -77 -14 -15 -3 -32 -7 -36
-10 -5 -3 -8 -162 -8 -353 l2 -348 147 -320 c87 -189 157 -328 171 -340 13
-11 34 -28 47 -37 13 -9 33 -24 44 -33 11 -8 95 -71 187 -140 156 -116 170
-125 204 -120 72 9 119 16 134 20 8 2 40 7 70 10 30 4 59 9 64 13 5 3 6 1 3
-5 -4 -5 -45 -102 -92 -214 -48 -112 -92 -217 -100 -234 -7 -16 -46 -109 -85
-205 -40 -96 -87 -209 -105 -250 -18 -41 -86 -201 -150 -355 -105 -253 -174
-416 -210 -500 -7 -16 -32 -75 -55 -130 -23 -55 -48 -116 -57 -135 -8 -19 -61
-145 -117 -280 l-103 -245 -39 -7 c-21 -3 -61 -9 -89 -13 -27 -3 -72 -10 -100
-15 -27 -5 -69 -11 -91 -14 -23 -3 -84 -12 -135 -20 -52 -8 -116 -18 -144 -21
-27 -4 -57 -8 -65 -10 -8 -2 -35 -7 -60 -10 -25 -3 -85 -13 -135 -21 -49 -8
-103 -17 -120 -20 -16 -3 -43 -7 -60 -10 -16 -3 -97 -16 -180 -30 -173 -28
-138 -3 -305 -219 -55 -71 -111 -143 -124 -160 -22 -26 -876 -1127 -933 -1201
-12 -16 -61 -78 -108 -139 -48 -60 -105 -134 -128 -164 -22 -30 -46 -62 -53
-70 -8 -9 -160 -205 -340 -436 -179 -231 -337 -433 -349 -450 -13 -16 -67 -86
-120 -155 -54 -69 -110 -141 -125 -160 -15 -19 -117 -150 -225 -290 -109 -140
-211 -271 -226 -291 l-29 -36 38 -25 c20 -14 98 -65 172 -114 525 -346 856
-647 1194 -1084 24 -32 125 -188 166 -260 126 -216 260 -571 295 -782 3 -18
10 -58 15 -88 44 -257 44 -582 -1 -895 -23 -164 -28 -195 -34 -215 -2 -8 -7
-31 -10 -50 -5 -29 -35 -165 -49 -220 -121 -480 -259 -869 -621 -1745 -59
-143 -145 -354 -192 -470 -47 -115 -91 -223 -98 -240 -7 -16 -23 -57 -35 -90
-13 -33 -31 -78 -40 -100 -10 -22 -47 -121 -84 -220 -37 -99 -79 -211 -94
-250 -14 -38 -27 -74 -28 -80 -2 -8 -66 -189 -97 -275 -36 -101 -168 -536
-182 -601 -2 -9 -12 -47 -24 -85 -19 -67 -58 -222 -67 -274 -3 -14 -9 -41 -14
-60 -5 -19 -17 -71 -26 -115 -22 -110 -23 -114 -30 -159 -3 -22 -7 -43 -9 -46
-1 -3 -6 -27 -9 -55 -4 -27 -9 -57 -11 -65 -2 -8 -6 -33 -10 -55 -3 -22 -10
-67 -15 -100 -5 -33 -12 -87 -15 -120 -4 -33 -8 -71 -10 -84 -2 -13 -7 -58
-11 -100 -4 -42 -8 -89 -10 -106 -2 -16 -6 -100 -10 -185 -18 -375 -4 -646 46
-890 6 -25 12 -57 14 -71 16 -102 101 -371 171 -544 40 -100 158 -339 199
-403 14 -23 26 -43 26 -46 0 -15 248 -383 284 -422 6 -7 20 -24 31 -40 44 -61
228 -275 326 -379 274 -291 547 -536 894 -804 94 -72 175 -134 180 -139 97
-75 348 -251 570 -399 94 -62 177 -118 185 -123 222 -149 866 -531 1258 -746
37 -20 150 -83 252 -139 192 -105 279 -153 415 -225 44 -24 103 -55 130 -70
28 -15 104 -55 170 -90 111 -58 180 -94 390 -205 44 -23 134 -71 200 -105 428
-225 1067 -567 1236 -662 52 -30 102 -58 110 -62 8 -4 23 -12 34 -19 11 -7 74
-43 140 -80 66 -37 127 -72 135 -77 8 -5 115 -69 238 -142 123 -73 253 -152
290 -175 37 -23 87 -54 112 -69 100 -61 433 -286 555 -374 112 -81 357 -272
391 -304 6 -6 36 -31 65 -56 140 -118 332 -310 455 -455 73 -87 174 -222 174
-234 0 -5 3 -11 8 -13 9 -4 62 -85 62 -94 0 -4 6 -15 14 -23 7 -9 54 -96 104
-193 50 -98 93 -174 95 -170 3 4 37 70 77 147 125 242 155 291 265 440 147
198 326 387 570 600 74 65 280 229 385 306 355 262 689 476 1263 810 131 77
240 139 243 139 2 0 21 11 42 23 20 13 62 37 92 54 262 143 367 201 475 258
50 26 95 51 100 55 6 4 71 39 145 77 74 39 203 106 285 150 83 44 209 110 280
148 72 37 157 82 190 100 33 18 128 67 210 110 83 43 164 86 180 95 17 10 75
41 130 70 148 78 515 276 645 348 25 13 79 43 120 65 41 22 92 51 112 64 21
13 40 23 42 23 3 0 43 23 90 50 47 28 87 50 89 50 2 0 78 43 168 96 90 53 180
105 199 116 76 43 644 393 665 410 6 5 87 59 180 121 94 61 175 115 180 120 6
4 71 51 145 104 186 132 361 264 514 386 52 42 230 190 236 197 3 3 41 37 85
75 238 209 484 460 680 694 16 20 32 38 36 41 12 11 225 302 260 355 203 307
361 638 453 945 28 96 62 230 69 275 3 17 8 41 11 55 6 29 14 76 22 140 3 25
7 56 10 70 21 120 21 687 -1 845 -2 17 -6 62 -10 100 -6 78 -11 129 -20 195
-9 70 -36 252 -41 280 -2 14 -7 43 -10 65 -23 165 -135 638 -220 930 -88 304
-294 904 -394 1150 -17 41 -17 40 -121 305 -90 230 -181 455 -199 495 -5 11
-20 47 -33 80 -14 33 -52 125 -85 205 -213 514 -399 1003 -458 1205 -2 6 -18
55 -35 110 -30 95 -132 480 -144 541 -2 16 -7 40 -10 54 -96 476 -103 952 -20
1290 8 30 16 67 18 81 10 55 67 230 112 339 142 352 381 700 690 1005 149 147
161 158 376 337 83 68 313 233 486 347 l172 114 -48 61 c-26 34 -87 113 -137
176 -49 63 -94 122 -101 130 -6 8 -88 114 -182 235 -94 121 -174 225 -178 230
-5 6 -24 30 -43 55 -19 25 -39 50 -45 57 -17 21 -29 36 -80 103 -27 36 -55 72
-62 80 -17 21 -182 234 -368 475 -88 114 -164 212 -170 219 -5 6 -23 29 -40
51 -16 22 -34 45 -40 52 -17 20 -26 33 -135 173 -58 74 -110 142 -117 150 -22
27 -157 202 -198 256 -42 55 -751 968 -772 994 -7 8 -53 67 -102 131 l-90 116
-73 14 c-40 7 -77 14 -83 14 -5 1 -28 5 -50 9 -22 4 -51 10 -65 13 -14 2 -56
10 -95 18 -38 7 -86 16 -105 19 -19 3 -46 8 -60 11 -14 3 -65 12 -115 20 -49
8 -101 17 -115 20 -14 3 -38 7 -55 9 -16 3 -55 9 -85 15 -30 5 -71 12 -90 15
-92 15 -268 43 -310 50 -14 3 -37 5 -51 5 -26 1 -33 12 -96 161 -8 19 -24 53
-34 76 -10 22 -19 43 -19 46 0 4 -13 35 -29 70 -35 77 -399 915 -668 1538 -62
146 -120 279 -127 295 -8 17 -28 64 -46 105 -18 41 -42 98 -54 125 -36 81 -49
115 -45 119 2 3 24 1 49 -4 25 -4 65 -11 90 -14 25 -3 56 -8 70 -10 182 -30
167 -30 208 0 20 16 42 33 47 39 6 6 44 40 85 76 81 69 113 97 175 153 22 19
44 36 48 36 7 0 30 47 109 220 11 25 41 88 65 140 25 52 58 122 73 155 15 33
39 84 54 114 l26 55 0 346 0 347 -137 27 c-76 14 -149 29 -163 32 -22 4 -69
13 -145 28 -62 12 -204 39 -225 42 -14 2 -36 7 -50 9 -197 39 -817 145 -850
145 -12 0 -45 -11 -73 -24 -113 -53 -215 -100 -267 -123 -107 -48 -126 -57
-228 -105 -56 -26 -104 -48 -107 -48 -2 0 -39 -16 -82 -36 -65 -31 -100 -45
-133 -57 -3 -1 -5 111 -5 250 -1 139 -3 255 -7 258 -8 8 -32 12 -124 19 -44 4
-92 8 -105 11 -13 2 -66 6 -117 10 -51 3 -101 8 -110 10 -9 1 -57 6 -107 9
-49 4 -110 9 -135 11 -45 5 -147 13 -247 20 -28 2 -87 6 -130 10 -43 4 -107 8
-143 10 -202 13 -259 16 -300 20 -44 4 -47 3 -115 -62 -38 -37 -142 -134 -229
-217 -87 -83 -179 -170 -204 -194 l-45 -43 -174 3 -173 3 0 70 c-1 39 -1 161
-1 272 l0 201 -780 -1 c-428 0 -783 -3 -787 -7z"/>
</g>
</svg>
